<?xml version="1.0" encoding="UTF-8" standalone="no"?>
<!-- Created with Inkscape (http://www.inkscape.org/) -->

<svg
   version="1.1"
   id="svg55"
   width="1280"
   height="1706.6667"
   viewBox="0 0 1280 1706.6667"
   sodipodi:docname="icon_inkscape.svg"
   inkscape:version="1.1.2 (0a00cf5339, 2022-02-04)"
   xmlns:inkscape="http://www.inkscape.org/namespaces/inkscape"
   xmlns:sodipodi="http://sodipodi.sourceforge.net/DTD/sodipodi-0.dtd"
   xmlns="http://www.w3.org/2000/svg"
   xmlns:svg="http://www.w3.org/2000/svg">
  <defs
     id="defs59" />
  <sodipodi:namedview
     id="namedview57"
     pagecolor="#ffffff"
     bordercolor="#666666"
     borderopacity="1.0"
     inkscape:pageshadow="2"
     inkscape:pageopacity="0.0"
     inkscape:pagecheckerboard="0"
     showgrid="false"
     inkscape:zoom="0.47158032"
     inkscape:cx="383.81584"
     inkscape:cy="902.28531"
     inkscape:window-width="1920"
     inkscape:window-height="1019"
     inkscape:window-x="0"
     inkscape:window-y="30"
     inkscape:window-maximized="1"
     inkscape:current-layer="layer3" />
  <g
     inkscape:groupmode="layer"
     id="layer3"
     inkscape:label="scales"
     style="opacity:1">
    <path
       style="fill:#fde4ac;fill-opacity:1;stroke:none;stroke-width:15;stroke-linecap:butt;stroke-linejoin:miter;stroke-miterlimit:4;stroke-dasharray:none;stroke-opacity:1"
       d="m 243.00966,1038.1549 c 0,0 -77.23336,152.2239 -99.27523,202.7238 -22.04187,50.5 -32.42705,79.2899 -33.37215,116.407 -0.94509,37.1171 3.03929,81.1258 12.79307,93.9706 9.75378,12.8447 25.63788,39.8411 76.36646,45.3655 50.72857,5.5243 340.54043,10.6726 431.60486,10.8203 91.06443,0.1476 438.95033,-12.7799 484.53903,-29.5599 20.4308,-7.5201 43.072,-43.3493 45.56,-73.953 2.488,-30.6037 2.0442,-66.588 -2.6562,-100.3406 -4.7004,-33.7526 -55.6958,-189.2028 -76.4934,-240.6897 -20.7976,-51.4868 -75.3702,-150.63189 -75.3702,-150.63189 z"
       id="path236088"
       sodipodi:nodetypes="cssssssssscc" />
    <path
       style="fill:#bea87e;fill-opacity:1;stroke:#bea87e;stroke-width:15;stroke-linecap:round;stroke-linejoin:round;stroke-miterlimit:4;stroke-dasharray:none;stroke-opacity:1"
       d="m 114.67484,1328.5323 c 0,0 19.44561,40.8611 38.58551,55.0088 19.1399,14.1476 32.37969,35.6633 91.22425,42.5423 58.84457,6.8789 366.44249,12.2468 505.84893,9.8844 139.40644,-2.3624 276.73897,-6.5361 315.39097,-20.1063 38.652,-13.5701 66.1687,-39.722 73.0472,-53.2091 6.8785,-13.4872 20.0561,-49.5013 20.0561,-49.5013 l 1.3716,61.657 -10.125,60.8999 -27.7801,37.246 -66.6576,14.0486 -139.46803,10.1187 -222.06036,6.4739 -197.77476,-0.4201 -190.36834,-3.301 -128.91843,-10.1814 -38.55613,-23.4833 -19.70564,-33.8987 -7.01055,-74.8097 z"
       id="path247356"
       sodipodi:nodetypes="cssssscccccccccccccc" />
    <path
       style="fill:none;stroke:#2c2c2c;stroke-width:15;stroke-linecap:butt;stroke-linejoin:miter;stroke-miterlimit:4;stroke-dasharray:none;stroke-opacity:1"
       d="m 243.00966,1038.1549 c 0,0 -77.23336,152.2239 -99.27523,202.7238 -22.04187,50.5 -32.42705,79.2899 -33.37215,116.407 -0.94509,37.1171 3.03929,81.1258 12.79307,93.9706 9.75378,12.8447 25.63788,39.8411 76.36646,45.3655 50.72857,5.5243 340.54043,10.6726 431.60486,10.8203 91.06443,0.1476 438.95033,-12.7799 484.53903,-29.5599 20.4308,-7.5201 43.072,-43.3493 45.56,-73.953 2.488,-30.6037 2.0442,-66.588 -2.6562,-100.3406 -4.7004,-33.7526 -55.6958,-189.2028 -76.4934,-240.6897 -20.7976,-51.4868 -75.3702,-150.63189 -75.3702,-150.63189 z"
       id="path205536"
       sodipodi:nodetypes="cssssssssscc" />
    <path
       style="fill:#fbfeed;fill-opacity:1;stroke:#2c2c2c;stroke-width:15;stroke-linecap:butt;stroke-linejoin:miter;stroke-miterlimit:4;stroke-dasharray:none;stroke-opacity:1"
       d="m 644.24202,1397.7542 c 77.11346,-1.0017 193.67816,1.1152 228.617,-12.5358 25.6577,-10.0247 16.36026,-54.3645 9.31491,-85.3444 -7.04535,-30.98 -12.2234,-64.4143 -30.63721,-81.662 -18.41382,-17.2476 -156.84444,-9.3485 -210.3649,-8.9174 -53.52046,0.4311 -158.93534,-7.9854 -188.16619,7.5009 -22.36444,11.8485 -37.46086,55.4464 -46.56332,82.6071 -9.94403,29.6718 -21.02359,73.5709 -0.59285,84.8664 20.43074,11.2956 161.2791,14.4869 238.39256,13.4852 z"
       id="path211073"
       sodipodi:nodetypes="zsssssszz" />
    <path
       style="fill:none;stroke:#2c2c2c;stroke-width:25;stroke-linecap:round;stroke-linejoin:round;stroke-miterlimit:4;stroke-dasharray:none;stroke-opacity:1"
       d="m 762.81426,1264.0866 12.34506,84.9311 36.62314,-42.1159"
       id="path218030"
       sodipodi:nodetypes="ccc" />
    <path
       style="fill:none;stroke:#2c2c2c;stroke-width:25;stroke-linecap:round;stroke-linejoin:round;stroke-miterlimit:4;stroke-dasharray:none;stroke-opacity:1"
       d="m 650.84023,1263.567 c 21.93934,-1.3193 38.06778,17.1794 36.84502,38.5838 -1.22276,21.4044 -16.41587,35.8144 -30.12451,37.3817 -13.70863,1.5673 -37.77402,-8.5984 -39.18385,-32.7967 -1.40984,-24.1984 10.52399,-41.8496 32.46334,-43.1688 z"
       id="path218301"
       sodipodi:nodetypes="zzszz" />
    <path
       style="fill:none;stroke:#2c2c2c;stroke-width:25;stroke-linecap:round;stroke-linejoin:round;stroke-miterlimit:4;stroke-dasharray:none;stroke-opacity:1"
       d="m 525.09788,1264.0888 c 23.0054,2.409 35.7765,16.1012 31.5603,39.4465 -4.21621,23.3453 -27.4158,39.1881 -42.88247,37.6505 -13.73025,-1.3651 -32.7497,-14.0296 -28.51281,-39.0134 4.2369,-24.9837 16.82959,-40.4925 39.83498,-38.0836 z"
       id="path218301-7"
       sodipodi:nodetypes="zzszz" />
  </g>
  <g
     inkscape:groupmode="layer"
     id="layer1"
     inkscape:label="cat"
     style="display:inline;opacity:1">
    <path
       style="display:inline;fill:#fbfeed;fill-opacity:1;stroke:none;stroke-width:1;stroke-linecap:butt;stroke-linejoin:round;stroke-miterlimit:4;stroke-dasharray:none;stroke-opacity:1"
       d="m 338.95953,214.59376 c 0,0 77.88332,15.72297 108.83422,28.70642 30.951,12.98346 74.4047,48.1111 74.4047,48.1111 0,0 75.5712,-15.92464 127.1861,-15.91688 75.8773,0.0114 146.8514,20.96354 146.8514,20.96354 0,0 33.6215,-35.5552 91.9659,-63.98746 58.3444,-28.43227 97.0706,-30.15031 97.0706,-30.15031 0,0 -3.7631,49.71849 -9.5567,76.00522 -5.7936,26.28674 -34.9272,97.70111 -34.9272,97.70111 0,0 31.0516,37.69765 30.049,129.35751 -1.0027,91.65986 -26.9142,129.86501 -26.9142,129.86501 0,0 31.6393,17.39744 64.44585,84.38047 32.8066,66.98302 23.6267,120.7451 17.3751,167.48864 -6.2515,46.74354 -29.39145,143.20597 -42.90975,179.27427 -13.5183,36.0682 -43.9441,62.0674 -43.9441,62.0674 0,0 -0.7789,20.7483 -11.1551,30.8993 -10.3762,10.1509 -27.355,16.083 -66.838,13.4019 -39.4829,-2.6811 -47.9044,-4.0142 -57.3486,-13.6557 -9.4442,-9.6415 -14.4347,-22.8149 -14.4347,-22.8149 0,0 -122.4169,2.025 -145.4583,2.327 -23.0415,0.302 -137.756,-4.0653 -137.756,-4.0653 0,0 5.2843,18.9049 0.081,25.8855 -5.2032,6.9805 -24.7098,18.9944 -38.3762,20.0899 -13.6664,1.0954 -31.6144,2.859 -62.7534,-7.0131 -31.1391,-9.8721 -42.7283,-17.901 -47.2819,-26.4566 -4.5536,-8.5557 -2.8208,-21.8345 -2.8208,-21.8345 0,0 -24.63888,1.4993 -31.36546,-12.0823 -6.72659,-13.5817 -31.78757,-91.6029 -49.32578,-181.37872 -17.53821,-89.77586 -19.91882,-128.41846 6.01926,-182.37879 25.93807,-53.96033 53.75886,-88.26496 72.11888,-102.79631 18.36,-14.53134 19.9074,-16.3962 19.9074,-16.3962 0,0 -25.04159,-51.13074 -26.99863,-106.21364 -1.95704,-55.08289 8.88273,-94.51779 18.07623,-116.79053 6.3917,-15.48515 15.0214,-28.472 15.0214,-28.472 0,0 -14.8165,-38.37132 -24.9714,-82.0064 -10.15485,-43.63509 -14.27081,-82.11465 -14.27081,-82.11465 z"
       id="path180194"
       sodipodi:nodetypes="cscscscscscssscssscscsssscsssscsscscc" />
    <path
       style="display:inline;fill:#898989;fill-opacity:1;stroke:#2c2c2c;stroke-width:15;stroke-linecap:round;stroke-linejoin:round;stroke-miterlimit:4;stroke-dasharray:none;stroke-opacity:1"
       d="m 275.51834,945.60515 c 0,0 -16.02726,4.4931 -31.57635,-1.8594 -15.54909,-6.3525 -28.19173,-24.24409 -32.53253,-37.92103 -4.3408,-13.67695 -5.93824,-30.79139 -2.67535,-53.82312 3.26288,-23.03174 -0.9852,-39.68799 -20.3773,-52.72313 -19.3921,-13.03513 -45.69379,-5.21999 -56.1631,9.31642 -10.46931,14.5364 -25.217,42.70018 -28.01549,73.83677 -2.79848,31.13658 2.51426,66.8976 18.60567,91.66731 16.0914,24.76975 39.03764,56.66643 68.98983,69.56333 29.95219,12.8969 56.66709,15.0517 73.18639,12.023 16.51929,-3.0287 33.38814,-12.0142 33.38814,-12.0142"
       id="path3604" />
    <path
       style="fill:#898989;fill-opacity:1;stroke:#898989;stroke-width:15;stroke-linecap:butt;stroke-linejoin:miter;stroke-miterlimit:4;stroke-dasharray:none;stroke-opacity:1"
       d="m 997.06468,983.51938 c 0,0 -64.79213,-70.50621 -104.99116,-129.34464 -40.19904,-58.83842 -64.17478,-132.50878 -64.17478,-132.50878 0,0 46.96784,-20.96081 70.62217,-38.52315 23.65433,-17.56235 45.40244,-47.89379 45.40244,-47.89379 109.93755,111.13554 85.28065,229.00342 53.14133,348.27036 z"
       id="path148605"
       sodipodi:nodetypes="cscscc" />
    <path
       style="display:inline;fill:#898989;fill-opacity:1;stroke:#898989;stroke-width:15;stroke-linecap:butt;stroke-linejoin:miter;stroke-miterlimit:4;stroke-dasharray:none;stroke-opacity:1"
       d="m 280.91767,963.75834 c 0,0 74.4695,-37.35698 131.85449,-103.31574 48.58038,-55.83867 72.87459,-127.86403 72.87459,-127.86403 0,0 -38.02042,-20.73518 -61.89593,-40.38927 -22.74579,-18.72411 -51.64807,-61.99832 -51.64807,-61.99832 -117.86627,124.73236 -116.00886,219.50126 -91.18508,333.56736 z"
       id="path148605-6"
       sodipodi:nodetypes="cscscc" />
    <path
       style="fill:#898989;fill-opacity:1;stroke:#898989;stroke-width:15;stroke-linecap:butt;stroke-linejoin:miter;stroke-miterlimit:4;stroke-dasharray:none;stroke-opacity:1"
       d="m 599.41668,282.479 c 0,0 -1.37652,76.76751 -80.96811,144.76192 -79.59159,67.99441 -168.60472,78.27069 -168.60472,78.27069 0,0 -1.65814,-37.74199 6.62348,-64.36749 8.28162,-26.6255 27.60445,-62.68715 27.60445,-62.68715 0,0 -22.32074,-55.98727 -27.1521,-86.4448 -4.83135,-30.45752 -11.11437,-70.32328 -11.11437,-70.32328 0,0 55.39587,12.34737 72.61248,17.8699 17.21661,5.52253 37.94502,11.87568 49.83274,18.79161 11.88771,6.91594 52.86348,38.8934 52.86348,38.8934 z"
       id="path167048" />
    <path
       style="fill:#898989;fill-opacity:1;stroke:#898989;stroke-width:15;stroke-linecap:butt;stroke-linejoin:miter;stroke-miterlimit:4;stroke-dasharray:none;stroke-opacity:1"
       d="m 699.72107,282.80612 c 0,0 6.66982,35.92998 30.73991,67.00032 24.0701,31.07034 76.94771,84.00311 122.67424,104.14599 45.72654,20.14288 112.12813,26.62337 112.12813,26.62337 0,0 -1.44276,-39.33125 -8.94992,-61.72797 -7.50716,-22.39672 -19.32924,-40.3997 -19.32924,-40.3997 l 5.73158,-19.526 c 0,0 20.09516,-47.18767 25.39535,-67.29261 5.30019,-20.10494 11.73666,-83.02852 11.73666,-83.02852 0,0 -28.61471,5.01873 -40.5375,8.62304 -38.87338,11.7516 -87.22237,39.3962 -97.94011,47.14237 -10.71774,7.74617 -43.42632,36.02428 -43.42632,36.02428 z"
       id="path176784"
       sodipodi:nodetypes="csscsccscsscc" />
    <path
       style="display:inline;fill:none;fill-opacity:1;stroke:#2c2c2c;stroke-width:15;stroke-linecap:butt;stroke-linejoin:round;stroke-miterlimit:4;stroke-dasharray:none;stroke-opacity:1"
       d="m 338.95953,214.59376 c 0,0 77.88332,15.72297 108.83422,28.70642 30.951,12.98346 74.4047,48.1111 74.4047,48.1111 0,0 75.5712,-15.92464 127.1861,-15.91688 75.8773,0.0114 146.8514,20.96354 146.8514,20.96354 0,0 33.6215,-35.5552 91.9659,-63.98746 58.3444,-28.43227 97.0706,-30.15031 97.0706,-30.15031 0,0 -3.7631,49.71849 -9.5567,76.00522 -5.7936,26.28674 -34.9272,97.70111 -34.9272,97.70111 0,0 31.0516,37.69765 30.049,129.35751 -1.0027,91.65986 -26.9142,129.86501 -26.9142,129.86501 0,0 31.6393,17.39744 64.44585,84.38047 32.8066,66.98302 23.6267,120.7451 17.3751,167.48864 -6.2515,46.74354 -29.39145,143.20597 -42.90975,179.27427 -13.5183,36.0682 -43.9441,62.0674 -43.9441,62.0674 0,0 -0.7789,20.7483 -11.1551,30.8993 -10.3762,10.1509 -27.355,16.083 -66.838,13.4019 -39.4829,-2.6811 -47.9044,-4.0142 -57.3486,-13.6557 -9.4442,-9.6415 -14.4347,-22.8149 -14.4347,-22.8149 0,0 -122.4169,2.025 -145.4583,2.327 -23.0415,0.302 -137.756,-4.0653 -137.756,-4.0653 0,0 5.2843,18.9049 0.081,25.8855 -5.2032,6.9805 -24.7098,18.9944 -38.3762,20.0899 -13.6664,1.0954 -31.6144,2.859 -62.7534,-7.0131 -31.1391,-9.8721 -42.7283,-17.901 -47.2819,-26.4566 -4.5536,-8.5557 -2.8208,-21.8345 -2.8208,-21.8345 0,0 -24.63888,1.4993 -31.36546,-12.0823 -6.72659,-13.5817 -31.78757,-91.6029 -49.32578,-181.37872 -17.53821,-89.77586 -19.91882,-128.41846 6.01926,-182.37879 25.93807,-53.96033 53.75886,-88.26496 72.11888,-102.79631 18.36,-14.53134 19.9074,-16.3962 19.9074,-16.3962 0,0 -25.04159,-51.13074 -26.99863,-106.21364 -1.95704,-55.08289 8.88273,-94.51779 18.07623,-116.79053 6.3917,-15.48515 15.0214,-28.472 15.0214,-28.472 0,0 -14.8165,-38.37132 -24.9714,-82.0064 -10.15485,-43.63509 -14.27081,-82.11465 -14.27081,-82.11465 z"
       id="path993"
       sodipodi:nodetypes="cscscscscscssscssscscsssscsssscsscscc" />
    <path
       style="display:inline;fill:none;stroke:#2c2c2c;stroke-width:15;stroke-linecap:round;stroke-linejoin:round;stroke-miterlimit:4;stroke-dasharray:none;stroke-opacity:1"
       d="m 791.72865,959.98633 c 0,0 -2.6451,46.40157 1.273,69.84227 3.918,23.4407 8.9434,40.4835 7.9451,52.6487 -0.9984,12.1652 -16.2407,44.6031 -11.8327,53.8131"
       id="path2010"
       sodipodi:nodetypes="cssc" />
    <path
       style="display:inline;fill:none;stroke:#2c2c2c;stroke-width:15;stroke-linecap:round;stroke-linejoin:round;stroke-miterlimit:4;stroke-dasharray:none;stroke-opacity:1"
       d="m 945.95975,981.21982 c 0,0 -3.9292,49.34568 -9.8549,71.51868 -5.9256,22.1729 -7.3505,31.8809 -6.9592,41.2108 0.3913,9.3299 8.8438,16.3482 9.7448,34.5105"
       id="path2817"
       sodipodi:nodetypes="cssc" />
    <path
       style="display:inline;fill:none;stroke:#2c2c2c;stroke-width:15;stroke-linecap:round;stroke-linejoin:round;stroke-miterlimit:4;stroke-dasharray:none;stroke-opacity:1"
       d="m 519.68095,970.89367 c 0,0 -7.2918,61.29763 -14.5182,83.30843 -7.2264,22.0107 -10.7047,39.7774 -8.1421,52.6679 2.5625,12.8905 5.9863,19.2642 8.8791,27.6821"
       id="path3160"
       sodipodi:nodetypes="cssc" />
    <path
       style="display:inline;fill:none;stroke:#2c2c2c;stroke-width:15;stroke-linecap:round;stroke-linejoin:round;stroke-miterlimit:4;stroke-dasharray:none;stroke-opacity:1"
       d="m 344.00229,957.35847 c 0,0 2.83247,38.7361 8.71826,62.83383 5.8857,24.0977 15.919,47.6206 12.4883,64.5622 -3.4308,16.9415 -9.1346,30.2906 -10.4603,40.4688"
       id="path3261"
       sodipodi:nodetypes="cssc" />
    <path
       style="display:inline;fill:#fedecf;fill-opacity:1;stroke:#2c2c2c;stroke-width:10;stroke-linecap:round;stroke-linejoin:round;stroke-miterlimit:4;stroke-dasharray:none;stroke-opacity:1"
       d="m 647.92925,455.34261 c 0,0 22.3721,14.26676 53.0097,21.65017 30.6376,7.38341 48.176,7.03954 48.176,7.03954 0,0 -43.9297,38.00449 -58.6364,62.61508 -14.7068,24.6106 -42.98,77.90187 -42.98,77.90187 0,0 -16.3171,-45.85672 -41.2699,-78.97934 -24.9528,-33.12263 -53.1842,-61.20318 -53.1842,-61.20318 0,0 39.4771,-5.68143 55.5346,-9.64392 16.0575,-3.96249 39.3502,-19.38022 39.3502,-19.38022 z"
       id="path3771"
       sodipodi:nodetypes="cscscscsc" />
    <path
       style="display:inline;fill:none;stroke:#2c2c2c;stroke-width:15;stroke-linecap:round;stroke-linejoin:round;stroke-miterlimit:4;stroke-dasharray:none;stroke-opacity:1"
       d="m 528.06585,350.06694 74.527,27.39865 -56.4389,32.04661"
       id="path5273" />
    <path
       style="display:inline;fill:none;stroke:#2c2c2c;stroke-width:15;stroke-linecap:round;stroke-linejoin:round;stroke-miterlimit:4;stroke-dasharray:none;stroke-opacity:1"
       d="m 787.00025,348.44565 -82.1362,27.30268 54.1169,32.71341"
       id="path5374"
       sodipodi:nodetypes="ccc" />
    <path
       style="display:inline;fill:#2c2c2c;fill-opacity:1;stroke:#2c2c2c;stroke-width:5;stroke-linecap:square;stroke-linejoin:round;stroke-miterlimit:4;stroke-dasharray:none;stroke-opacity:1"
       d="m 620.31015,407.8093 c 19.6363,0.48127 40.2523,0.47146 57.7869,-0.69263 0,0 -15.1321,5.69237 -20.4022,11.27867 -5.2702,5.58629 -9.352,12.52949 -9.352,12.52949 0,0 -5.7067,-10.16542 -11.4997,-15.00418 -5.7929,-4.83875 -16.533,-8.11135 -16.533,-8.11135 z"
       id="path6021"
       sodipodi:nodetypes="ccscsc" />
    <path
       style="display:inline;fill:none;stroke:#2c2c2c;stroke-width:15;stroke-linecap:round;stroke-linejoin:round;stroke-miterlimit:4;stroke-dasharray:none;stroke-opacity:1"
       d="m 264.99538,466.31716 c 0,0 24.04208,-11.1445 56.40035,-19.05618 32.35822,-7.91169 73.56582,-9.52751 73.56582,-9.52751"
       id="path9327" />
    <path
       style="display:inline;fill:none;stroke:#2c2c2c;stroke-width:15;stroke-linecap:round;stroke-linejoin:round;stroke-miterlimit:4;stroke-dasharray:none;stroke-opacity:1"
       d="m 294.86351,567.64609 c 0,0 16.76883,-25.76461 39.69229,-45.98617 22.92345,-20.22156 60.86785,-41.897 60.86785,-41.897"
       id="path9428" />
    <path
       style="display:inline;fill:none;stroke:#2c2c2c;stroke-width:15;stroke-linecap:round;stroke-linejoin:round;stroke-miterlimit:4;stroke-dasharray:none;stroke-opacity:1"
       d="m 1021.6671,456.91395 c 0,0 -25.81665,-10.41182 -56.36765,-14.56011 -30.551,-4.14829 -56.3369,-2.80774 -56.3369,-2.80774"
       id="path9529" />
    <path
       style="display:inline;fill:none;stroke:#2c2c2c;stroke-width:15;stroke-linecap:round;stroke-linejoin:round;stroke-miterlimit:4;stroke-dasharray:none;stroke-opacity:1"
       d="m 913.55425,490.44127 c 0,0 26.5799,12.17485 46.7447,23.47999 20.1648,11.30514 49.10335,39.25653 49.10335,39.25653"
       id="path9630" />
    <path
       style="display:inline;fill:none;stroke:#2c2c2c;stroke-width:15;stroke-linecap:round;stroke-linejoin:round;stroke-miterlimit:4;stroke-dasharray:none;stroke-opacity:1"
       d="m 415.51075,1140.3442 c 0,0 1.972,9.1966 1.3992,16.3901 -0.5728,7.1935 -4.0123,18.2515 -4.0123,18.2515"
       id="path9731" />
    <path
       style="display:inline;fill:none;stroke:#2c2c2c;stroke-width:15;stroke-linecap:round;stroke-linejoin:round;stroke-miterlimit:4;stroke-dasharray:none;stroke-opacity:1"
       d="m 460.30455,1140.3613 c 0,0 3.575,11.5884 3.3477,18.6758 -0.2238,6.9791 -4.3426,18.9489 -4.3426,18.9489"
       id="path9731-3"
       sodipodi:nodetypes="csc" />
    <path
       style="display:inline;fill:none;stroke:#2c2c2c;stroke-width:15;stroke-linecap:round;stroke-linejoin:round;stroke-miterlimit:4;stroke-dasharray:none;stroke-opacity:1"
       d="m 879.58585,1131.7711 c 0,0 -2.9448,10.3404 -2.1756,17.5155 0.7264,6.7758 5.7181,19.9765 5.7181,19.9765"
       id="path9731-7"
       sodipodi:nodetypes="csc" />
    <path
       style="display:inline;fill:none;stroke:#2c2c2c;stroke-width:15;stroke-linecap:round;stroke-linejoin:round;stroke-miterlimit:4;stroke-dasharray:none;stroke-opacity:1"
       d="m 836.90835,1127.6121 c 0,0 -5.7732,12.2069 -5.6394,21.4224 0.099,6.8129 3.7993,21.4358 3.7993,21.4358"
       id="path9731-1"
       sodipodi:nodetypes="csc" />
    <path
       style="fill:#fedecf;fill-opacity:1;stroke:#fedecf;stroke-width:10;stroke-linecap:butt;stroke-linejoin:round;stroke-miterlimit:4;stroke-dasharray:none;stroke-opacity:1"
       d="m 950.29931,235.60701 c 0,0 -29.37176,17.57468 -45.05997,29.42934 -17.50627,13.22847 -33.88665,39.9657 -36.99867,44.28493 -3.11202,4.31923 -8.77802,7.85159 -8.77802,7.85159 0,0 19.57547,7.64469 25.17839,11.1853 5.60292,3.54062 29.58901,26.54012 29.58901,26.54012 0,0 18.23049,-33.98882 25.12971,-61.39233 6.20424,-24.64305 10.68033,-42.45206 10.93955,-57.89895 z"
       id="path193023"
       sodipodi:nodetypes="csscscsc" />
    <path
       style="display:inline;fill:none;stroke:#2c2c2c;stroke-width:10;stroke-linecap:round;stroke-linejoin:round;stroke-miterlimit:4;stroke-dasharray:none;stroke-opacity:1"
       d="m 950.29931,235.60701 c 0,0 -26.99796,10.41472 -50.19856,30.65416 -27.95015,24.38278 -40.6381,50.9117 -40.6381,50.9117 0,0 14.3901,5.89762 30.0608,17.445 11.5812,8.53392 24.7066,20.28042 24.7066,20.28042"
       id="path7425"
       sodipodi:nodetypes="cscsc" />
    <path
       style="fill:#fedecf;fill-opacity:1;stroke:#fedecf;stroke-width:10;stroke-linecap:round;stroke-linejoin:round;stroke-miterlimit:4;stroke-dasharray:none;stroke-opacity:1"
       d="m 375.55285,245.40795 46.87982,34.13575 33.96748,34.95109 -25.3998,13.91444 -22.3915,20.59902 c 0,0 -16.60741,-23.81931 -23.89452,-51.94756 -7.28711,-28.12826 -9.16148,-51.65274 -9.16148,-51.65274 z"
       id="path202418" />
    <path
       style="display:inline;fill:none;stroke:#2c2c2c;stroke-width:10;stroke-linecap:round;stroke-linejoin:round;stroke-miterlimit:4;stroke-dasharray:none;stroke-opacity:1"
       d="m 375.55285,245.40795 c 0,0 30.9669,19.96988 47.7158,33.83855 13.2993,11.01227 33.1315,35.24829 33.1315,35.24829 0,0 -15.5014,8.50208 -25.4136,15.40773 -9.8749,6.87966 -22.3777,19.10573 -22.3777,19.10573"
       id="path8034"
       sodipodi:nodetypes="cscsc" />
  </g>
</svg>
